<svg xmlns="http://www.w3.org/2000/svg" xmlns:xlink="http://www.w3.org/1999/xlink" width="500" zoomAndPan="magnify" viewBox="0 0 375 374.999991" height="500" preserveAspectRatio="xMidYMid meet" version="1.0"><defs><g/><clipPath id="18aba58187"><path d="M 154 81 L 317.582031 81 L 317.582031 153 L 154 153 Z M 154 81 " clip-rule="nonzero"/></clipPath><clipPath id="a5335d000f"><path d="M 65.734375 80.238281 L 158 80.238281 L 158 153.273438 L 65.734375 153.273438 Z M 65.734375 80.238281 " clip-rule="nonzero"/></clipPath></defs><g clip-path="url(#18aba58187)"><path fill="#ff805d" d="M 317.582031 152.140625 L 228.625 81.523438 L 154.273438 81.523438 L 243.230469 152.140625 Z M 317.582031 152.140625 " fill-opacity="1" fill-rule="nonzero"/></g><g clip-path="url(#a5335d000f)"><path fill="#ff805d" d="M 66.988281 153.242188 C 66.667969 153.242188 66.34375 153.101562 66.125 152.824219 C 65.746094 152.347656 65.824219 151.65625 66.300781 151.277344 L 155.257812 80.664062 C 155.738281 80.285156 156.433594 80.367188 156.804688 80.839844 C 157.183594 81.316406 157.101562 82.007812 156.628906 82.382812 L 67.671875 153 C 67.472656 153.167969 67.230469 153.242188 66.988281 153.242188 Z M 66.988281 153.242188 " fill-opacity="1" fill-rule="nonzero"/></g><path fill="#ff805d" d="M 136.246094 134.769531 L 150.949219 134.769531 L 150.949219 149.472656 L 136.246094 149.472656 Z M 136.246094 134.769531 " fill-opacity="1" fill-rule="nonzero"/><path fill="#ff805d" d="M 157.59375 134.769531 L 172.300781 134.769531 L 172.300781 149.472656 L 157.59375 149.472656 Z M 157.59375 134.769531 " fill-opacity="1" fill-rule="nonzero"/><path fill="#ff805d" d="M 136.246094 114.386719 L 150.949219 114.386719 L 150.949219 129.089844 L 136.246094 129.089844 Z M 136.246094 114.386719 " fill-opacity="1" fill-rule="nonzero"/><path fill="#ff805d" d="M 157.59375 114.386719 L 172.300781 114.386719 L 172.300781 129.089844 L 157.59375 129.089844 Z M 157.59375 114.386719 " fill-opacity="1" fill-rule="nonzero"/><path fill="#ff805d" d="M 114.796875 114.386719 L 100.09375 125.546875 L 100.09375 91.878906 L 114.796875 91.878906 Z M 114.796875 114.386719 " fill-opacity="1" fill-rule="nonzero"/><g fill="#ff805d" fill-opacity="1"><g transform="translate(99.211389, 235.833758)"><g><path d="M 3.753906 0 L 48.0625 0 L 48.0625 -3.511719 L 10.539062 -3.511719 L 10.296875 -3.832031 L 47.101562 -54.925781 L 47.101562 -55.886719 L 4.949219 -55.886719 L 4.949219 -52.371094 L 40.398438 -52.371094 L 40.714844 -51.972656 L 3.753906 -0.796875 Z M 3.753906 0 "/></g></g></g><g fill="#ff805d" fill-opacity="1"><g transform="translate(157.484699, 235.833758)"><g><path d="M 6.386719 0 L 47.980469 0 L 47.980469 -3.511719 L 10.058594 -3.511719 L 10.058594 -26.90625 L 41.515625 -26.90625 L 41.515625 -30.097656 L 10.058594 -30.097656 L 10.058594 -52.371094 L 47.023438 -52.371094 L 47.023438 -55.886719 L 6.386719 -55.886719 Z M 6.386719 0 "/></g></g></g><g fill="#ff805d" fill-opacity="1"><g transform="translate(216.316785, 235.833758)"><g><path d="M 51.734375 0.957031 L 53.089844 0.957031 L 53.089844 -55.886719 L 49.417969 -55.886719 L 49.417969 -8.382812 L 48.9375 -8.382812 L 7.742188 -56.761719 L 6.386719 -56.761719 L 6.386719 0 L 10.058594 0 L 10.058594 -47.503906 L 10.617188 -47.503906 Z M 51.734375 0.957031 "/></g></g></g><g fill="#ff805d" fill-opacity="1"><g transform="translate(74.462654, 286.82603)"><g><path d="M 12.605469 0.476562 C 18.71875 0.476562 22.289062 -2.617188 22.289062 -7.507812 C 22.289062 -13.386719 17.15625 -14.539062 12.84375 -15.492188 C 9.683594 -16.207031 6.898438 -16.816406 6.898438 -19.195312 C 6.898438 -21.164062 8.664062 -22.21875 11.109375 -22.21875 C 13.757812 -22.21875 15.96875 -20.960938 16.613281 -18.210938 L 21.609375 -18.210938 C 20.792969 -23.816406 16.207031 -26.398438 11.210938 -26.398438 C 5.980469 -26.398438 2.039062 -23.78125 2.039062 -18.789062 C 2.039062 -13.316406 6.863281 -12.265625 11.109375 -11.3125 C 14.40625 -10.601562 17.359375 -9.953125 17.359375 -7.269531 C 17.359375 -4.789062 15.324219 -3.703125 12.636719 -3.703125 C 9.921875 -3.703125 7.101562 -4.722656 6.25 -8.425781 L 1.1875 -8.425781 C 1.835938 -1.734375 7.609375 0.476562 12.605469 0.476562 Z M 12.605469 0.476562 "/></g></g></g><g fill="#ff805d" fill-opacity="1"><g transform="translate(115.087014, 286.82603)"><g><path d="M 7.203125 0 L 7.203125 -10.363281 L 13.488281 -10.363281 C 18.347656 -10.363281 21.710938 -13.285156 21.710938 -18.277344 C 21.710938 -23.644531 18.347656 -25.921875 13.488281 -25.921875 L 2.308594 -25.921875 L 2.308594 0 Z M 7.203125 -21.539062 L 12.808594 -21.539062 C 15.390625 -21.539062 16.851562 -20.316406 16.851562 -18.109375 C 16.851562 -15.832031 15.425781 -14.644531 12.808594 -14.644531 L 7.203125 -14.644531 Z M 7.203125 -21.539062 "/></g></g></g><g fill="#ff805d" fill-opacity="1"><g transform="translate(154.692566, 286.82603)"><g><path d="M 5.367188 0 L 7.101562 -5.332031 L 16.988281 -5.332031 L 18.753906 0 L 23.882812 0 L 14.746094 -25.921875 L 9.375 -25.921875 L 0.238281 0 Z M 12.0625 -20.589844 L 15.628906 -9.613281 L 8.492188 -9.613281 Z M 12.0625 -20.589844 "/></g></g></g><g fill="#ff805d" fill-opacity="1"><g transform="translate(195.79237, 286.82603)"><g><path d="M 13.894531 0.476562 C 20.28125 0.476562 24.191406 -3.058594 24.902344 -8.425781 L 19.570312 -8.425781 C 19.058594 -5.367188 16.816406 -3.90625 13.757812 -3.90625 C 9.003906 -3.90625 6.421875 -7.578125 6.421875 -12.976562 C 6.421875 -18.347656 9.003906 -22.015625 13.757812 -22.015625 C 16.816406 -22.015625 19.09375 -20.554688 19.570312 -17.800781 L 24.902344 -17.800781 C 24.191406 -22.898438 20.28125 -26.398438 13.894531 -26.398438 C 5.300781 -26.398438 1.324219 -20.148438 1.324219 -12.976562 C 1.324219 -5.808594 5.300781 0.476562 13.894531 0.476562 Z M 13.894531 0.476562 "/></g></g></g><g fill="#ff805d" fill-opacity="1"><g transform="translate(238.827896, 286.82603)"><g><path d="M 19.601562 0 L 19.601562 -4.382812 L 7.203125 -4.382812 L 7.203125 -10.804688 L 18.3125 -10.804688 L 18.3125 -15.152344 L 7.203125 -15.152344 L 7.203125 -21.539062 L 19.601562 -21.539062 L 19.601562 -25.921875 L 2.308594 -25.921875 L 2.308594 0 Z M 19.601562 0 "/></g></g></g><g fill="#ff805d" fill-opacity="1"><g transform="translate(276.905245, 286.82603)"><g><path d="M 12.605469 0.476562 C 18.71875 0.476562 22.289062 -2.617188 22.289062 -7.507812 C 22.289062 -13.386719 17.15625 -14.539062 12.84375 -15.492188 C 9.683594 -16.207031 6.898438 -16.816406 6.898438 -19.195312 C 6.898438 -21.164062 8.664062 -22.21875 11.109375 -22.21875 C 13.757812 -22.21875 15.96875 -20.960938 16.613281 -18.210938 L 21.609375 -18.210938 C 20.792969 -23.816406 16.207031 -26.398438 11.210938 -26.398438 C 5.980469 -26.398438 2.039062 -23.78125 2.039062 -18.789062 C 2.039062 -13.316406 6.863281 -12.265625 11.109375 -11.3125 C 14.40625 -10.601562 17.359375 -9.953125 17.359375 -7.269531 C 17.359375 -4.789062 15.324219 -3.703125 12.636719 -3.703125 C 9.921875 -3.703125 7.101562 -4.722656 6.25 -8.425781 L 1.1875 -8.425781 C 1.835938 -1.734375 7.609375 0.476562 12.605469 0.476562 Z M 12.605469 0.476562 "/></g></g></g></svg>